<svg width="250" height="181" viewBox="0 0 250 181" fill="none" xmlns="http://www.w3.org/2000/svg">
<path fill-rule="evenodd" clip-rule="evenodd" d="M206 27.5L213.056 22.904L197.435 0L190 5.07106L200.403 19.6547L164.412 25.0266L151.435 6.00007L144 11.0711L160 34L178.814 31.3414L183.352 58.5264L112.035 80.244L109.698 56.3522L126.119 53.9013L124.79 44.9999L79 51.8344L80.3286 60.7358L100.785 57.6825L103.251 82.8892L85.8284 96.1241C76.7454 86.7945 64.0494 81 50 81C22.3858 81 0 103.386 0 131C0 158.614 22.3858 181 50 181C73.3982 181 93.0426 164.928 98.4956 143.221L115 144.5L185.309 70.2516L187.372 82.6084C165.871 88.2035 150 107.748 150 131C150 158.614 172.386 181 200 181C227.614 181 250 158.614 250 131C250 103.386 227.614 81 200 81C198.739 81 197.488 81.0467 196.251 81.1384L187.728 30.0818L206 27.5ZM108.367 135.187L104.278 93.3905L91.4806 103.074C96.8597 111.048 100 120.657 100 131C100 132.175 99.9595 133.34 99.8797 134.495L108.367 135.187ZM89.9115 133.683C89.9702 132.796 90 131.901 90 131C90 122.924 87.6066 115.407 83.4905 109.12L54.8091 130.821L89.9115 133.683ZM44 139L38.7494 131.887L77.7903 102.23C70.5941 95.2774 60.7966 91 50 91C27.9086 91 10 108.909 10 131C10 153.091 27.9086 171 50 171C68.1178 171 83.4223 158.954 88.3417 142.435L44 139ZM196.995 140.261L205.872 138.78L197.906 91.0538C198.599 91.0181 199.298 91 200 91C222.091 91 240 108.909 240 131C240 153.091 222.091 171 200 171C177.909 171 160 153.091 160 131C160 112.714 172.27 97.2936 189.027 92.5239L196.995 140.261ZM112.929 89.3799L116.851 129.477L171.773 71.4604L112.929 89.3799Z" fill="white"/>
</svg>
