<svg width="102" height="135" viewBox="0 0 102 135" fill="none" xmlns="http://www.w3.org/2000/svg">
<path fill-rule="evenodd" clip-rule="evenodd" d="M51 134.5C51 134.5 102 77.0265 102 49.6214C102 22.2162 79.1665 0 51 0C22.8335 0 0 22.2162 0 49.6214C0 77.0265 51 134.5 51 134.5ZM51 73.1262C65.8245 73.1262 77.8421 61.4335 77.8421 47.0097C77.8421 32.586 65.8245 20.8932 51 20.8932C36.1755 20.8932 24.1579 32.586 24.1579 47.0097C24.1579 61.4335 36.1755 73.1262 51 73.1262Z" fill="black"/>
<path d="M81 51C81 67.5685 67.5685 81 51 81C34.4315 81 21 67.5685 21 51C21 34.4315 34.4315 21 51 21C67.5685 21 81 34.4315 81 51Z" fill="white"/>
<path d="M80.5534 26.861L81.8372 26.0248L80.9739 24.759L75.7877 17.1548L74.9426 15.9156L73.7033 16.7608L71.2348 18.4444L69.9692 19.3076L70.8588 20.5547L72.8909 23.4033L64.2939 24.6864L60.5157 19.1468L59.6706 17.9076L58.4313 18.7528L55.9628 20.4364L54.7103 21.2906L55.5779 22.534L60.8899 30.1463L61.4173 30.9021L62.3298 30.7732L67.1277 30.0953L68.1766 36.3793L47.5103 42.6726L47.0515 37.982L51.093 37.3788L52.5766 37.1574L52.3552 35.6738L51.9141 32.7185L51.6927 31.235L50.2091 31.4564L35.0067 33.7254L33.5231 33.9469L33.7446 35.4304L34.1857 38.3857L34.4071 39.8693L35.8906 39.6478L41.1215 38.8671L41.7049 44.8316L37.605 47.946C34.4113 45.1138 30.2057 43.392 25.6 43.392C15.6036 43.392 7.5 51.4957 7.5 61.492C7.5 71.4884 15.6036 79.592 25.6 79.592C33.6259 79.592 40.4286 74.3695 42.8012 67.1392L47.064 67.4694L47.7771 67.5247L48.269 67.0053L57.9067 56.8276C57.511 58.3157 57.3001 59.8792 57.3001 61.492C57.3001 71.4884 65.4037 79.592 75.4001 79.592C85.3964 79.592 93.5001 71.4884 93.5001 61.492C93.5001 51.5017 85.4061 43.4017 75.418 43.392L73.0587 29.2572L77.6019 28.6152L77.9317 28.5686L78.2107 28.3869L80.5534 26.861ZM23.4922 65.6435L36.2047 66.6282C34.2961 70.5617 30.263 73.2721 25.5999 73.2721C19.094 73.2721 13.8199 67.998 13.8199 61.4921C13.8199 54.9862 19.094 49.7121 25.5999 49.7121C28.142 49.7121 30.4944 50.5161 32.4193 51.8853L20.9575 60.5921L19.7794 61.487L20.6581 62.6774L22.4013 65.0389L22.8085 65.5906L23.4922 65.6435ZM77.5965 65.5544L79.0761 65.3074L78.8291 63.8279L76.4811 49.761C82.4803 50.3069 87.18 55.3506 87.18 61.4921C87.18 67.998 81.9059 73.2721 75.4 73.2721C68.8941 73.2721 63.62 67.998 63.62 61.4921C63.62 56.7073 66.4737 52.586 70.5741 50.7423L72.9228 64.8137L73.1698 66.2933L74.6493 66.0463L77.5965 65.5544ZM42.3884 51.8189L42.7742 55.7632C42.4047 54.6551 41.9311 53.5946 41.3648 52.5934L42.3884 51.8189ZM37.3573 60.7559L31.2365 60.257L36.2545 56.4601C36.8772 57.7758 37.2631 59.2255 37.3573 60.7559ZM61.041 44.8117L48.9671 57.5658L48.1049 48.7511L61.041 44.8117Z" fill="white" stroke="#679D2C" stroke-width="3"/>
<path d="M80.5532 26.861L81.8371 26.0248L80.9738 24.759L75.7876 17.1548L74.9424 15.9156L73.7032 16.7608L71.2347 18.4444L69.969 19.3076L70.8587 20.5547L72.8908 23.4033L64.2939 24.6864L60.5158 19.1469L59.6707 17.9077L58.4314 18.7529L55.9629 20.4365L54.7103 21.2907L55.578 22.5341L60.8899 30.1464L61.4173 30.9022L62.3299 30.7732L67.1276 30.0953L68.1765 36.3793L47.5104 42.6727L47.0516 37.9821L51.0928 37.3789L52.5764 37.1575L52.3549 35.6739L51.9138 32.7187L51.6924 31.2351L50.2088 31.4565L46.4679 32.0149L46.1275 28.5342L45.9814 27.0413L44.4886 27.1873L41.5148 27.4782L40.0219 27.6242L40.1679 29.1171L40.5379 32.9L35.0064 33.7256L33.5229 33.947L33.7443 35.4306L34.1854 38.3858L34.4068 39.8694L35.8904 39.648L41.1216 38.8672L41.705 44.8315L37.605 47.946C34.4113 45.1139 30.2056 43.3921 25.6 43.3921C15.6036 43.3921 7.5 51.4957 7.5 61.4921C7.5 71.4884 15.6036 79.592 25.6 79.592C33.6259 79.592 40.4286 74.3696 42.8012 67.1393L47.0641 67.4695L47.7773 67.5248L48.2691 67.0054L57.9065 56.8281C57.5108 58.316 57.2999 59.8793 57.2999 61.4921C57.2999 71.4884 65.4036 79.592 75.3999 79.592C85.3963 79.592 93.4999 71.4884 93.4999 61.4921C93.4999 51.5017 85.406 43.4018 75.4179 43.3921L73.0586 29.2572L77.6018 28.6152L77.9315 28.5686L78.2106 28.3869L80.5532 26.861ZM36.2047 66.6283C34.296 70.5617 30.263 73.272 25.6 73.272C19.0941 73.272 13.82 67.9979 13.82 61.492C13.82 54.9861 19.0941 49.712 25.6 49.712C28.1422 49.712 30.4945 50.516 32.4194 51.8852L20.9574 60.5922L19.7792 61.4871L20.6579 62.6775L22.4012 65.0389L22.8084 65.5906L23.4921 65.6436L36.2047 66.6283ZM77.5964 65.5544L79.076 65.3074L78.829 63.8279L76.481 49.7609C82.4802 50.3067 87.18 55.3505 87.18 61.492C87.18 67.9979 81.9059 73.272 75.4 73.272C68.8941 73.272 63.62 67.9979 63.62 61.492C63.62 56.7072 66.4737 52.5859 70.5739 50.7423L72.9227 64.8137L73.1697 66.2933L74.6492 66.0463L77.5964 65.5544ZM42.3885 51.8188L42.7743 55.7636C42.4048 54.6554 41.9311 53.5947 41.3648 52.5934L42.3885 51.8188ZM37.3575 60.756L31.2363 60.2571L36.2547 56.46C36.8773 57.7758 37.2633 59.2256 37.3575 60.756ZM61.0409 44.8118L48.9672 57.5657L48.105 48.7511L61.0409 44.8118Z" fill="white" stroke="#679D2C" stroke-width="3"/>
</svg>
