<svg width="149" height="155" viewBox="0 0 149 155" fill="none" xmlns="http://www.w3.org/2000/svg">
<path d="M86.1915 75.6063C86.1915 82.0634 80.9571 87.2978 74.5 87.2978C68.043 87.2978 62.8086 82.0634 62.8086 75.6063C62.8086 69.1493 68.043 63.9149 74.5 63.9149C80.9571 63.9149 86.1915 69.1493 86.1915 75.6063Z" fill="white"/>
<path fill-rule="evenodd" clip-rule="evenodd" d="M40.4042 100.989H108.596V92.0532C108.596 88.7395 111.282 86.0532 114.596 86.0532H123.532V66.4043H114.596C111.282 66.4043 108.596 63.718 108.596 60.4043V51.4681H40.4042V60.4043C40.4042 63.718 37.7179 66.4043 34.4042 66.4043H25.468V86.0532H34.4042C37.7179 86.0532 40.4042 88.7395 40.4042 92.0532V100.989ZM88.1915 75.6063C88.1915 83.1679 82.0616 89.2978 74.5 89.2978C66.9384 89.2978 60.8086 83.1679 60.8086 75.6063C60.8086 68.0447 66.9384 61.9149 74.5 61.9149C82.0616 61.9149 88.1915 68.0447 88.1915 75.6063Z" fill="white"/>
<path fill-rule="evenodd" clip-rule="evenodd" d="M16 42H133V110.457H16V42ZM23.468 88.0532V64.4043H34.4042C36.6134 64.4043 38.4042 62.6134 38.4042 60.4043V49.4681H110.596V60.4043C110.596 62.6134 112.387 64.4043 114.596 64.4043H125.532V88.0532H114.596C112.387 88.0532 110.596 89.8441 110.596 92.0532V102.989H38.4042V92.0532C38.4042 89.8441 36.6134 88.0532 34.4042 88.0532H23.468Z" fill="white"/>
<path d="M147.109 31.9444C148.058 31.9444 148.473 30.7448 147.727 30.1581L109.618 0.215542C108.962 -0.299988 108 0.167432 108 1.00186V17.9444H1.00003C0.447744 17.9444 2.8789e-05 18.3921 2.8789e-05 18.9444V30.9444C2.8789e-05 31.4967 0.447745 31.9444 1.00003 31.9444H128C128.003 31.9444 128.007 31.9444 128.01 31.9443L147.109 31.9444Z" fill="white"/>
<path d="M1.00196 123C0.0522848 123 -0.362602 124.2 0.384148 124.786L38.4928 154.729C39.1489 155.244 40.1106 154.777 40.1106 153.943L40.1106 137L147.111 137C147.663 137 148.111 136.552 148.111 136L148.111 124C148.111 123.448 147.663 123 147.111 123L20.1106 123C20.1073 123 20.1039 123 20.1006 123L1.00196 123Z" fill="white"/>
</svg>
