<svg width="221" height="187" viewBox="0 0 221 187" fill="none" xmlns="http://www.w3.org/2000/svg">
<path d="M95.9551 63.2428C98.6191 65.735 98.552 68.4767 95.7538 71.4679L93.7207 73.6412C90.9225 76.6323 88.1913 76.8818 85.5273 74.3896C82.91 71.9412 83.0005 69.2214 85.7987 66.2302L87.8318 64.0569C90.6301 61.0658 93.3378 60.7944 95.9551 63.2428Z" fill="white"/>
<path d="M98.0943 115.198C100.758 117.69 100.691 120.432 97.8929 123.423L95.8598 125.596C93.0616 128.588 90.3305 128.837 87.6665 126.345C85.0492 123.897 85.1397 121.177 87.9379 118.186L89.971 116.012C92.7692 113.021 95.4769 112.75 98.0943 115.198Z" fill="white"/>
<path fill-rule="evenodd" clip-rule="evenodd" d="M88.7093 4.22789C90.9947 1.78489 94.2675 0.51469 97.6026 0.776287L165.855 6.13041C170.976 6.53221 175.137 10.425 175.879 15.5082L181.444 53.6421C172.673 52.4805 164.459 47.3315 159.767 38.9563C159.648 38.743 159.517 38.5362 159.377 38.3366C160.12 34.1487 158.796 29.6804 155.459 26.5581C150.215 21.6532 141.989 21.9275 137.084 27.1706C132.179 32.4137 132.453 40.6402 137.696 45.5451C141.157 48.7822 145.916 49.7635 150.163 48.5494C157.985 60.1194 170.469 67.2217 183.543 68.0201L185.766 83.2522C186.249 86.5624 185.199 89.9126 182.914 92.3555L97.7193 183.425C93.5691 187.861 86.6081 188.093 82.1716 183.943L4.03288 110.845C-0.403614 106.695 -0.635578 99.7337 3.51469 95.2973L88.7093 4.22789ZM99.3291 78.8878L101.362 76.7145C104.204 73.6766 105.616 70.5279 105.598 67.2683C105.627 64.0525 104.052 60.958 100.874 57.9849C97.6957 55.0118 94.4799 53.6247 91.2263 53.8237C88.0195 54.0664 84.9952 55.7068 82.1532 58.7447L80.1202 60.9179C77.2782 63.9559 75.8211 67.1061 75.7487 70.3687C75.7667 73.6282 77.3649 76.7445 80.543 79.7177C83.7211 82.6908 86.9136 84.056 90.1204 83.8133C93.4176 83.5675 96.4872 81.9257 99.3291 78.8878ZM128.728 84.6999L122.419 78.7974L54.7574 104.892L61.0669 110.795L128.728 84.6999ZM101.468 130.843L103.501 128.67C106.343 125.632 107.755 122.483 107.737 119.224C107.766 116.008 106.191 112.913 103.013 109.94C99.8349 106.967 96.619 105.58 93.3655 105.779C90.1587 106.022 87.1344 107.662 84.2924 110.7L82.2593 112.873C79.4174 115.911 77.9602 119.062 77.8878 122.324C77.9059 125.584 79.504 128.7 82.6821 131.673C85.8603 134.646 89.0527 136.011 92.2595 135.769C95.5568 135.523 98.6264 133.881 101.468 130.843Z" fill="white"/>
<path d="M158.248 42.2405C163.709 50.6526 172.554 55.7294 181.893 56.7163C186.431 57.1959 191.086 56.7098 195.525 55.1712C209.565 50.306 216.547 36.6175 212.099 21.9935C211.484 19.9701 212.448 17.7234 214.447 17.0309C216.242 16.4087 218.233 17.2737 218.845 19.0724C225.289 37.9966 216.103 56.821 198.087 63.0646C193.177 64.766 188.091 65.3668 183.099 64.9785C171.39 64.0678 160.196 57.7166 152.988 47.365C152.984 47.3594 152.98 47.3537 152.976 47.348C153.339 47.1493 153.692 46.9344 154.033 46.7043C154.758 46.1958 155.442 45.6051 156.071 44.9327C156.902 44.0443 157.584 43.0702 158.119 42.0411C158.153 42.0946 158.188 42.1479 158.222 42.2011C158.231 42.2142 158.239 42.2273 158.248 42.2405Z" fill="white"/>
</svg>
