<svg width="60" height="60" viewBox="0 0 60 60" fill="none" xmlns="http://www.w3.org/2000/svg">
<path d="M60 30C60 46.5685 46.5685 60 30 60C13.4315 60 0 46.5685 0 30C0 13.4315 13.4315 0 30 0C46.5685 0 60 13.4315 60 30Z" fill="white"/>
<path d="M11.111 53.3081C11.0377 52.934 11 52.5452 11 52.1412C11 47.4776 16.0304 40.7829 22.7493 37.7342C18.9026 35.3952 16.3333 31.1643 16.3333 26.3333C16.3333 18.9695 22.3029 13 29.6667 13C37.0305 13 43 18.9695 43 26.3333C43 31.0997 40.499 35.2819 36.7378 37.6393C43.4435 40.6419 48.3333 47.4286 48.3333 52.1412C48.3333 52.7814 48.2431 53.3838 48.0703 53.9492C43.0444 57.7474 36.7852 60 30 60C22.8413 60 16.2682 57.4926 11.111 53.3081Z" fill="#679D2C"/>
</svg>
